<?xml version="1.0" standalone="no"?>
<!DOCTYPE svg PUBLIC "-//W3C//DTD SVG 20010904//EN"
 "http://www.w3.org/TR/2001/REC-SVG-20010904/DTD/svg10.dtd">
<svg version="1.0" xmlns="http://www.w3.org/2000/svg"
 width="512.000000pt" height="512.000000pt" viewBox="0 0 512.000000 512.000000"
 preserveAspectRatio="xMidYMid meet">

<g transform="translate(0.000000,512.000000) scale(0.100000,-0.100000)"
fill="currentColor" stroke="none">
<path d="M3192 4508 c-310 -310 -568 -571 -574 -582 -7 -12 -6 -479 2 -1490
11 -1434 12 -1472 31 -1491 19 -20 35 -20 1102 -23 738 -2 1094 0 1118 8 21 5
40 18 43 27 4 8 12 679 18 1490 l12 1475 -575 574 c-369 368 -581 574 -594
574 -13 0 -222 -202 -583 -562z m1628 -1733 c-5 -605 -10 -1243 -10 -1417 l0
-318 -1029 0 -1029 0 -6 58 c-3 31 -8 604 -11 1272 -3 668 -8 1278 -11 1355
l-6 140 528 533 527 534 529 -529 528 -528 -10 -1100z"/>
<path d="M3653 4456 c-108 -35 -203 -127 -243 -233 -18 -47 -21 -75 -18 -148
3 -78 8 -100 35 -156 140 -285 548 -281 689 6 26 55 29 69 29 165 0 95 -3 110
-28 163 -37 74 -110 148 -184 183 -48 23 -74 28 -148 31 -57 2 -105 -2 -132
-11z m239 -129 c138 -71 187 -234 110 -370 -51 -91 -155 -145 -259 -134 -135
14 -240 128 -242 263 -1 76 25 141 79 195 86 86 202 103 312 46z"/>
<path d="M4435 2936 l-25 -25 0 -391 0 -390 -477 1 c-263 1 -531 4 -596 8
l-117 6 70 78 c78 86 83 107 39 140 -21 15 -31 17 -46 9 -36 -20 -263 -271
-263 -292 0 -12 51 -74 127 -156 114 -122 130 -135 157 -132 21 2 35 12 45 30
18 31 19 28 -79 139 l-55 62 639 -5 c616 -6 639 -5 657 13 18 18 19 41 19 452
0 459 0 458 -47 472 -17 4 -29 -1 -48 -19z"/>
<path d="M767 3618 c-307 -310 -564 -572 -571 -583 -20 -30 3 -2955 23 -2979
12 -15 114 -16 1125 -16 945 0 1115 2 1132 14 19 14 19 48 30 1493 11 1425 11
1479 -6 1503 -10 14 -268 274 -572 578 -428 426 -559 552 -578 552 -20 1 -139
-114 -583 -562z m1113 -111 l523 -528 -7 -832 c-3 -458 -9 -1094 -12 -1415
l-7 -582 -1027 0 -1027 0 -7 432 c-3 238 -8 876 -12 1418 l-5 985 522 528
c287 290 525 526 529 525 4 -2 243 -241 530 -531z"/>
<path d="M1280 3577 c-116 -26 -219 -106 -268 -208 -93 -193 -9 -425 188 -518
48 -23 68 -26 160 -26 96 0 110 2 162 29 169 85 252 271 203 452 -51 190 -254
313 -445 271z m194 -132 c118 -57 178 -194 141 -321 -45 -157 -234 -238 -379
-163 -91 46 -136 116 -144 220 -9 132 63 240 188 280 42 14 152 5 194 -16z"/>
<path d="M617 2052 c-15 -17 -17 -63 -17 -460 l0 -442 23 -12 c17 -10 153 -12
652 -8 347 3 631 4 633 4 2 -1 -29 -36 -67 -78 -75 -80 -86 -109 -53 -139 19
-18 50 -22 67 -9 6 4 64 64 128 134 87 94 117 133 117 152 0 19 -21 48 -72
104 -195 207 -200 210 -238 172 -33 -33 -24 -60 50 -140 l69 -75 -297 -6
c-163 -3 -433 -7 -599 -8 l-303 -1 0 398 c0 374 -1 400 -18 415 -24 22 -55 21
-75 -1z"/>
</g>
</svg>
